<svg viewBox="60 100 264.6 50.4" fill="none" xmlns="http://www.w3.org/2000/svg">
<path d="M276.57 147.311H276.726L291.879 132.385L276.581 103.013L276.57 147.311Z" fill="#FFFFFF" fill-opacity="0.95"/>
<path d="M321.54 103.013H321.384L306.231 117.944L321.53 147.311L321.54 103.013Z" fill="#FFFFFF" fill-opacity="0.95"/>
<path d="M75.5291 111.9C75.5291 112.06 75.5075 112.235 75.5021 112.384C75.3564 111.06 74.6171 109.912 73.5595 109.205C74.4876 110.895 74.2232 113.049 72.777 114.479C72.6529 114.596 72.5288 114.708 72.4047 114.809C73.8239 113.049 73.7268 110.486 72.0756 108.859C71.9245 108.71 71.768 108.577 71.6115 108.455C71.5737 108.455 71.5305 108.45 71.4982 108.444V115.463C71.4982 115.739 71.2715 115.957 70.9963 115.957C70.7211 115.957 70.4999 115.739 70.4999 115.463H70.5053V108.444C70.4621 108.45 70.4189 108.455 70.3758 108.455C70.2247 108.577 70.0682 108.71 69.9279 108.859C68.2605 110.486 68.1579 113.049 69.5879 114.809C69.4584 114.708 69.3289 114.596 69.2156 114.479C67.7694 113.049 67.4996 110.895 68.4277 109.205C67.3701 109.917 66.6362 111.066 66.4905 112.384C66.4743 112.23 66.4581 112.06 66.4581 111.9C66.4581 109.88 67.8288 108.173 69.6851 107.625C68.4277 107.386 67.0787 107.689 66.0265 108.524C66.129 108.402 66.2423 108.274 66.3664 108.157C67.6129 106.929 69.4206 106.562 70.9963 107.078C72.572 106.562 74.3743 106.929 75.637 108.157C75.7449 108.274 75.8583 108.402 75.9662 108.524C74.9085 107.689 73.5649 107.386 72.3022 107.625C74.1693 108.178 75.5345 109.88 75.5345 111.9M70.9963 105.403C66.7334 105.403 63.2744 108.806 63.2744 113.017C63.2744 113.48 63.323 113.937 63.4093 114.373C66.1668 114.655 68.7785 115.638 70.9963 117.202C73.2195 115.638 75.8313 114.655 78.5941 114.373C78.675 113.937 78.7236 113.48 78.7236 113.017C78.7236 108.806 75.2701 105.403 70.9963 105.403ZM74.0344 120.004C76.209 119.094 77.871 117.212 78.4808 114.931C76.0687 115.383 73.8077 116.404 71.8867 117.872C72.6691 118.51 73.3922 119.222 74.0344 120.004ZM63.5226 114.931C64.127 117.212 65.789 119.094 67.9583 120.004C68.6058 119.222 69.3127 118.51 70.106 117.872C68.1903 116.404 65.9293 115.383 63.5172 114.931M70.9909 118.6C70.365 119.153 69.7822 119.77 69.2426 120.424C69.8146 120.541 70.3866 120.621 70.9909 120.621C71.5953 120.621 72.1781 120.541 72.7447 120.424C72.2105 119.77 71.6169 119.153 70.9909 118.6Z" fill="#FFFFFF"/>
<path d="M95.0895 107.04C94.5768 107.04 94.2099 106.699 94.2099 106.216C94.2099 105.732 94.5822 105.322 95.0895 105.322C95.5967 105.322 95.9528 105.716 95.9528 106.216C95.9528 106.715 95.5805 107.04 95.0895 107.04ZM91.9921 107.04C91.501 107.04 91.1341 106.699 91.1341 106.216C91.1341 105.732 91.5064 105.322 91.9921 105.322C92.4777 105.322 92.8824 105.716 92.8824 106.216C92.8824 106.715 92.5047 107.04 91.9921 107.04ZM93.1361 110.071C91.0801 110.071 90.1034 112.362 90.1034 114.867C90.1034 118.403 91.8086 119.461 92.9202 119.461C94.2585 119.461 95.397 118.583 95.8179 117.27C96.05 116.515 96.0985 115.664 96.0985 114.383C96.0985 112.336 95.7694 110.06 93.1414 110.06M96.3306 117.594C96.1471 118.03 95.8665 118.461 95.5373 118.839C94.96 119.455 94.0696 120.046 92.6018 120.046C90.2923 120.046 88.5493 117.525 88.5493 114.702C88.5493 112.08 90.3408 109.47 93.1414 109.47C94.8898 109.47 96.0068 110.661 96.3576 110.661C96.7785 110.661 96.8486 109.996 97.0051 109.725H97.6311C97.5231 110.23 97.5231 110.826 97.5231 111.331V117.456C97.5231 118.121 97.6311 119.381 99.0341 119.461H101.414V120.051H99.687C98.0304 120.051 96.6759 119.828 96.3306 117.6" fill="#FFFFFF"/>
<path d="M104.243 124.124C103.736 124.124 103.359 123.778 103.359 123.273C103.359 122.768 103.736 122.401 104.243 122.401C104.751 122.401 105.112 122.789 105.112 123.273C105.112 123.757 104.729 124.124 104.243 124.124ZM108.96 120.056C107.303 120.056 106.283 119.37 105.506 117.812C105.226 119.259 104.044 120.056 102.409 120.056H100.973V119.466H101.988C103.483 119.434 104.092 118.562 104.092 117.095V111.203C104.092 110.624 104.071 110.528 103.278 110.305L105.582 109.842V115.67C105.582 117.212 106.623 119.466 108.469 119.466H109.186V120.056H108.965H108.96ZM101.151 124.124C100.66 124.124 100.283 123.778 100.283 123.273C100.283 122.768 100.66 122.401 101.151 122.401C101.643 122.401 102.009 122.789 102.009 123.273C102.009 123.757 101.664 124.124 101.151 124.124Z" fill="#FFFFFF"/>
<path d="M108.742 119.465H108.958C110.512 119.465 111.143 118.561 111.143 117.094V106.773C111.143 106.199 111.117 105.991 110.323 105.763L112.627 105.3V117.099C112.627 119.008 111.354 120.061 109.438 120.061H108.737V119.47L108.742 119.465Z" fill="#FFFFFF"/>
<path d="M116.758 117.246V106.915C116.758 106.271 116.412 106.037 115.036 106.037V105.442L118.231 105.309V117.389C118.231 118.697 118.9 119.399 120.087 119.479H121.047V120.069H119.974C118.112 120.069 116.758 119.399 116.758 117.251" fill="#FFFFFF"/>
<path d="M127.851 111.969C125.142 111.969 125.428 115.872 124.112 118.265C124.214 118.334 124.279 118.403 124.306 118.467C124.943 119.201 125.984 120.466 127.732 120.466C129.384 120.466 130.819 118.674 130.819 116.468C130.819 114.261 129.842 112.044 127.91 111.969H127.846H127.851ZM135.438 120.052C133.787 120.052 132.929 119.366 132.082 118.058C131.526 119.685 130.037 121.072 127.635 121.072C125.563 121.072 124.527 119.85 123.836 118.908L123.745 118.818C123.156 119.578 122.574 120.057 121.273 120.057H120.593V119.467H121.3C121.462 119.435 122.066 119.35 122.396 119.02C124.743 116.883 123.043 111.448 128.234 111.448C130.922 111.448 132.389 114.224 132.389 116.356C132.389 116.633 132.362 116.936 132.314 117.18C132.708 118.35 133.647 119.461 134.925 119.461H135.438C137.003 119.461 137.629 118.557 137.629 117.09V106.769C137.629 106.195 137.613 105.982 136.793 105.759L139.097 105.291V117.09C139.097 118.999 137.823 120.052 135.935 120.052H135.443H135.438Z" fill="#FFFFFF"/>
<path d="M142.546 106.773C142.546 106.199 142.524 105.986 141.715 105.763L144.019 105.3V120.061H142.546V106.778V106.773Z" fill="#FFFFFF"/>
<path d="M163.119 107.278C162.601 107.278 162.256 106.932 162.256 106.448C162.256 105.964 162.601 105.581 163.119 105.581C163.605 105.581 163.972 105.948 163.972 106.448C163.972 106.948 163.605 107.278 163.119 107.278ZM160.016 107.278C159.525 107.278 159.164 106.932 159.164 106.448C159.164 105.964 159.525 105.581 160.016 105.581C160.534 105.581 160.912 105.948 160.912 106.448C160.912 106.948 160.534 107.278 160.016 107.278ZM162.466 110.489C162.256 110.441 162.067 110.415 161.9 110.415C159.65 110.415 157.243 112.791 157.243 116.359C157.243 117.763 158.058 119.486 159.617 119.55C161.252 119.55 162.461 117.806 162.461 115.902V110.489H162.466ZM163.939 116.476C163.939 120.225 161.695 124.128 157.297 124.128C152.899 124.128 150.627 120.225 150.627 116.476V113.174C150.627 112.552 150.287 112.324 148.906 112.324V111.728L152.1 111.59V116.476C152.1 121.99 154.701 123.506 157.297 123.506C159.525 123.506 161.808 122.352 162.331 118.412C161.727 119.438 160.81 120.06 159.137 120.06C157.648 120.06 155.786 118.688 155.786 116.508C155.786 112.467 158.581 109.867 162.472 109.867H163.961L163.945 116.482L163.939 116.476Z" fill="#FFFFFF"/>
<path d="M173.488 118.176V110.487C173.31 110.439 173.094 110.413 172.927 110.413C170.698 110.413 168.27 112.789 168.27 116.357C168.27 117.782 169.085 119.383 170.666 119.463H173.369C173.439 119.048 173.466 118.654 173.488 118.176ZM178.102 120.053H174.745C173.958 123.567 171.367 124.397 169.479 124.397C169.16 124.397 168.831 124.365 167.968 124.301C170.061 123.849 172.484 123.232 173.256 120.053H170.159C168.691 120.053 166.808 118.681 166.808 116.501C166.808 112.46 169.597 109.86 173.488 109.86H175.004V118.085C175.004 118.591 174.929 119.053 174.864 119.468H178.102V120.058V120.053Z" fill="#FFFFFF"/>
<path d="M177.651 119.461H177.889C179.448 119.461 180.063 118.557 180.063 117.089V112.915C180.063 112.341 180.031 112.251 179.238 112.022L181.52 111.565V115.67C181.52 117.185 182.546 119.466 184.375 119.466C185.967 119.466 186.593 118.562 186.593 117.095V112.07C186.593 111.469 186.577 111.405 185.762 111.155L188.066 110.719V115.67C188.066 117.212 189.14 119.466 190.948 119.466C192.534 119.466 193.171 118.562 193.171 117.095V111.203C193.171 110.624 193.144 110.528 192.329 110.305L194.633 109.842V115.67C194.633 117.212 195.712 119.466 197.52 119.466H198.243V120.056H198.027C196.381 120.056 195.362 119.349 194.558 117.807C194.288 119.253 193.111 120.056 191.471 120.056C189.831 120.056 188.859 119.418 187.996 117.807C187.721 119.253 186.528 120.056 184.947 120.056C183.366 120.056 182.405 119.386 181.569 118.041L181.488 117.929C181.17 119.306 180.004 120.056 178.374 120.056H177.646V119.466L177.651 119.461Z" fill="#FFFFFF"/>
<path d="M197.828 119.465H198.028C199.598 119.465 200.235 118.561 200.235 117.093V106.773C200.235 106.199 200.213 105.991 199.409 105.763L201.724 105.3V117.099C201.724 119.008 200.44 120.06 198.524 120.06H197.823V119.47L197.828 119.465Z" fill="#FFFFFF"/>
<path d="M205.166 106.773C205.166 106.199 205.145 105.986 204.33 105.763L206.634 105.3V120.061H205.166V106.778V106.773Z" fill="#FFFFFF"/>
<path d="M219.821 107.04C219.303 107.04 218.931 106.699 218.931 106.216C218.931 105.732 219.303 105.322 219.821 105.322C220.302 105.322 220.674 105.716 220.674 106.216C220.674 106.715 220.302 107.04 219.821 107.04ZM216.719 107.04C216.228 107.04 215.85 106.699 215.85 106.216C215.85 105.732 216.228 105.322 216.719 105.322C217.21 105.322 217.604 105.716 217.604 106.216C217.604 106.715 217.221 107.04 216.719 107.04ZM217.857 110.071C215.801 110.071 214.825 112.362 214.825 114.867C214.825 118.403 216.53 119.461 217.652 119.461C218.969 119.461 220.118 118.583 220.534 117.27C220.771 116.515 220.814 115.664 220.814 114.383C220.814 112.336 220.496 110.06 217.852 110.06M221.041 117.594C220.863 118.03 220.582 118.461 220.248 118.839C219.67 119.455 218.791 120.046 217.323 120.046C215.003 120.046 213.265 117.525 213.265 114.702C213.265 112.08 215.057 109.47 217.852 109.47C219.595 109.47 220.723 110.661 221.068 110.661C221.483 110.661 221.548 109.996 221.716 109.725H222.341C222.234 110.23 222.234 110.826 222.234 111.331V117.456C222.234 118.121 222.341 119.381 223.744 119.461H226.119V120.051H224.403C222.746 120.051 221.392 119.828 221.036 117.6" fill="#FFFFFF"/>
<path d="M230.698 107.066V106.566H229.889C228.766 106.566 228.183 105.391 228.183 104.657C228.183 104.136 228.486 103.605 229.09 103.605C229.371 103.605 229.651 103.652 229.743 103.886C229.603 103.977 229.441 104.2 229.441 104.392C229.441 104.663 229.673 104.87 229.937 104.87C230.202 104.87 230.396 104.732 230.396 104.296C230.396 103.631 229.856 103.147 229.139 103.147C228.092 103.147 227.466 103.977 227.466 104.939C227.466 105.673 228.027 106.269 228.513 106.572H227.277L227.072 107.071H230.709L230.698 107.066ZM233.677 120.056C232.026 120.056 231 119.37 230.229 117.812C229.959 119.258 228.766 120.056 227.131 120.056H225.69V119.466H226.716C228.2 119.434 228.815 118.562 228.815 117.094V111.203C228.815 110.623 228.788 110.528 227.989 110.304L230.299 109.842V115.669C230.299 117.211 231.346 119.466 233.186 119.466H233.914V120.056H233.677Z" fill="#FFFFFF"/>
<path d="M236.756 124.124C236.233 124.124 235.866 123.778 235.866 123.273C235.866 122.768 236.238 122.401 236.756 122.401C237.242 122.401 237.614 122.789 237.614 123.273C237.614 123.757 237.242 124.124 236.756 124.124ZM241.462 120.056C239.805 120.056 238.785 119.37 238.008 117.812C237.738 119.259 236.546 120.056 234.905 120.056H233.459V119.466H234.49C235.985 119.434 236.589 118.562 236.589 117.095V111.203C236.589 110.624 236.557 110.528 235.774 110.305L238.078 109.842V115.67C238.078 117.212 239.131 119.466 240.971 119.466H241.688V120.056H241.456H241.462ZM233.659 124.124C233.168 124.124 232.79 123.778 232.79 123.273C232.79 122.768 233.162 122.401 233.659 122.401C234.155 122.401 234.517 122.789 234.517 123.273C234.517 123.757 234.166 124.124 233.659 124.124Z" fill="#FFFFFF"/>
<path d="M243.696 119.463H244.975C246.685 119.463 248.963 118.724 248.963 116.586C248.963 115.491 248.007 114.932 247.079 114.932C245.719 114.932 244.333 116.219 243.977 117.942L243.701 119.463H243.696ZM254.245 120.053H241.251V119.463H243.183C243.21 119.271 243.253 119.117 243.275 118.947C243.291 118.628 243.367 118.33 243.437 118.054C243.852 116.081 245.169 114.294 247.371 114.294C249.276 114.294 250.355 115.602 250.355 116.985C250.355 117.99 249.745 119 248.353 119.463H252.497C252.497 113.997 250.193 111.264 248.115 111.264C245.39 111.264 244.575 112.822 244.182 115.055H243.906C243.95 111.817 245.93 110.668 248.078 110.668H248.099C251.639 110.668 254.245 115.177 254.245 119.463V120.053Z" fill="#FFFFFF"/>
<path d="M73.3606 135.533H72.8156C72.4379 133.528 71.3155 131.194 68.8764 131.194C66.977 131.194 64.7915 132.555 64.7915 137.49C64.7915 142.424 66.6532 143.785 68.9574 143.785C71.4936 143.785 72.8966 141.807 73.0045 139.005H73.6682C73.6682 142.27 71.9145 144.327 68.9574 144.327C65.002 144.327 63 140.829 63 137.49C63 133.597 65.7089 130.662 68.9574 130.662C70.8244 130.662 71.7796 131.891 72.1897 131.891C72.5404 131.891 72.6969 131.311 72.8156 131.082H73.3606V135.538V135.533Z" fill="#FFFFFF"/>
<path d="M79.6462 139.032C77.8655 139.415 75.5181 139.952 75.5181 142.217C75.5181 143.094 76.3114 143.668 77.1154 143.668C78.4968 143.668 79.6408 142.174 79.6408 140.404V139.032H79.6462ZM80.9736 137.644V142.748C80.9736 143.323 81.2003 143.44 81.4971 143.44C81.8748 143.44 82.1014 143.094 82.1014 141.946H82.6411C82.6411 143.227 82.2741 144.099 81.0438 144.099C80.1534 144.099 79.7217 143.519 79.6786 142.445H79.6462C79.1012 143.487 78.0867 144.333 76.6621 144.333C75.394 144.333 74.0342 143.578 74.0342 142.084C74.0342 139.643 77.8547 138.984 79.6462 138.527V137.165C79.6462 136.075 79.0634 135.384 77.6604 135.384C76.8402 135.384 76.0038 135.677 75.475 136.075L75.5181 136.118C75.9066 136.134 76.3329 136.416 76.3329 136.942C76.3329 137.394 76.0038 137.878 75.4156 137.878C74.876 137.878 74.536 137.474 74.536 136.798C74.536 135.735 75.8635 134.847 77.6172 134.847C79.7595 134.847 80.979 135.544 80.979 137.649" fill="#FFFFFF"/>
<path d="M85.1624 139.585C85.1624 142.866 85.8261 143.786 87.8497 143.786C89.285 143.786 90.537 142.595 90.537 139.585C90.537 136.576 89.285 135.38 87.8497 135.38C86.4143 135.38 85.1624 136.571 85.1624 139.585ZM83.8457 136.379C83.8457 135.805 83.5327 135.608 82.297 135.608V135.077L85.1462 134.965V136.672H85.184C85.8315 135.762 86.2956 134.843 88.0223 134.843C90.3643 134.843 91.9453 137.182 91.9453 139.585C91.9453 141.989 90.3643 144.328 87.7148 144.328C86.6571 144.328 85.7614 143.898 85.2002 143.116H85.1624V146.046C85.1624 146.62 85.4808 146.817 86.7596 146.817V147.359H82.1621V146.817C83.5273 146.817 83.8403 146.62 83.8403 146.046V136.379H83.8457Z" fill="#FFFFFF"/>
<path d="M95.6375 131.942C95.6375 132.463 95.2328 132.851 94.7094 132.851C94.186 132.851 93.7651 132.463 93.7651 131.942C93.7651 131.421 94.1752 131.006 94.7094 131.006C95.2436 131.006 95.6375 131.41 95.6375 131.942ZM97.1269 144.097H92.5186V143.555C93.8838 143.555 94.2022 143.369 94.2022 142.784V136.377C94.2022 135.802 93.8892 135.606 92.6589 135.606V135.074L95.5242 134.962V142.784C95.5242 143.363 95.8318 143.555 97.1215 143.555V144.097H97.1269Z" fill="#FFFFFF"/>
<path d="M102.819 134.848V135.385H99.8995V142.196C99.8995 143.387 100.499 143.791 101.168 143.791C101.734 143.791 102.592 143.371 102.592 141.85V141.026H103.132V141.723C103.132 143.254 102.414 144.333 100.822 144.333C99.3923 144.333 98.5829 143.557 98.5829 142.105V135.385H97.1421V134.848C98.7771 134.848 99.2412 133.279 99.3653 131.971H99.9049V134.848H102.824H102.819Z" fill="#FFFFFF"/>
<path d="M109.385 139.032C107.61 139.414 105.257 139.951 105.257 142.217C105.257 143.094 106.055 143.668 106.854 143.668C108.241 143.668 109.379 142.174 109.379 140.403V139.032H109.385ZM110.712 137.644V142.748C110.712 143.323 110.95 143.44 111.247 143.44C111.613 143.44 111.84 143.094 111.84 141.945H112.391C112.391 143.227 112.024 144.099 110.799 144.099C109.892 144.099 109.471 143.519 109.428 142.445H109.39C108.845 143.487 107.836 144.333 106.417 144.333C105.149 144.333 103.789 143.578 103.789 142.084C103.789 139.643 107.604 138.984 109.39 138.526V137.165C109.39 136.075 108.807 135.384 107.41 135.384C106.595 135.384 105.748 135.676 105.224 136.075L105.262 136.118C105.656 136.134 106.082 136.416 106.082 136.942C106.082 137.394 105.748 137.878 105.17 137.878C104.593 137.878 104.291 137.474 104.291 136.798C104.291 135.735 105.613 134.847 107.367 134.847C109.509 134.847 110.712 135.544 110.712 137.649" fill="#FFFFFF"/>
<path d="M115.462 142.784C115.462 143.363 115.775 143.555 117.054 143.555V144.097H112.456V143.555C113.827 143.555 114.145 143.369 114.145 142.784V132.272C114.145 131.692 113.832 131.506 112.607 131.506V130.964L115.462 130.895V142.784Z" fill="#FFFFFF"/>
<path d="M122.423 130.904H126.206L129.708 141.522H129.783L133.48 130.904H137.106V131.435C135.59 131.435 135.331 131.531 135.331 132.754V142.234C135.331 143.463 135.59 143.558 137.138 143.558V144.101H132.012V143.558C133.631 143.558 133.847 143.463 133.847 142.234V131.898H133.809L129.503 144.101H129.044L124.932 131.898H124.884V142.181C124.884 143.122 125.337 143.521 126.74 143.564V144.106H122.412V143.564C123.777 143.526 124.231 143.128 124.231 142.181V132.754C124.231 131.531 123.977 131.435 122.412 131.435V130.904H122.423Z" fill="#FFFFFF"/>
<path d="M143.208 139.032C141.433 139.415 139.08 139.952 139.08 142.217C139.08 143.094 139.879 143.668 140.672 143.668C142.064 143.668 143.214 142.174 143.214 140.404V139.032H143.208ZM144.525 137.644V142.748C144.525 143.323 144.757 143.44 145.054 143.44C145.421 143.44 145.653 143.094 145.653 141.946H146.198C146.198 143.227 145.825 144.099 144.6 144.099C143.694 144.099 143.278 143.519 143.241 142.445H143.197C142.647 143.487 141.643 144.333 140.219 144.333C138.945 144.333 137.585 143.578 137.585 142.084C137.585 139.643 141.401 138.984 143.197 138.527V137.165C143.197 136.075 142.609 135.384 141.212 135.384C140.391 135.384 139.555 135.677 139.026 136.075L139.069 136.118C139.453 136.134 139.89 136.416 139.89 136.942C139.89 137.394 139.555 137.878 138.972 137.878C138.427 137.878 138.093 137.474 138.093 136.798C138.093 135.735 139.431 134.847 141.174 134.847C143.322 134.847 144.525 135.544 144.525 137.649" fill="#FFFFFF"/>
<path d="M147.881 136.379C147.881 135.805 147.568 135.608 146.337 135.608V135.077L149.197 134.965V137.267H149.251C149.689 136.156 150.385 134.843 151.793 134.843C152.57 134.843 153.293 135.311 153.293 136.167C153.293 136.751 152.932 137.108 152.397 137.108C151.863 137.108 151.496 136.826 151.496 136.246C151.496 135.906 151.658 135.63 151.966 135.475C151.912 135.401 151.793 135.38 151.68 135.38C151.172 135.38 149.98 135.954 149.473 138.166C149.197 139.373 149.197 141.154 149.197 142.404C149.197 143.371 149.521 143.557 150.951 143.557V144.1H146.316V143.557C147.562 143.557 147.875 143.371 147.875 142.786V136.379H147.881Z" fill="#FFFFFF"/>
<path d="M162.635 135.083V135.615C161.194 135.737 160.617 136.189 158.194 138.571L160.719 142.373C161.453 143.505 161.691 143.558 162.781 143.558V144.101H160.385L157.25 139.395L156.354 140.203V142.793C156.354 143.372 156.661 143.564 157.951 143.564V144.106H153.354V143.564C154.713 143.564 155.026 143.378 155.026 142.793V132.281C155.026 131.701 154.708 131.515 153.488 131.515V130.973L156.354 130.904V139.571L159.349 136.891C159.683 136.582 159.953 136.311 159.953 136.008C159.953 135.705 159.602 135.615 158.474 135.615V135.083H162.64H162.635Z" fill="#FFFFFF"/>
<path d="M169.364 138.831C169.364 137.268 168.889 135.38 166.892 135.38C165.101 135.38 164.297 137.162 164.297 138.831H169.364ZM164.297 139.374V139.927C164.297 142.08 165.36 143.787 167.281 143.787C168.97 143.787 169.634 143.016 170.378 141.942L170.848 142.245C169.677 143.936 168.76 144.324 167.119 144.324C164.453 144.324 162.824 141.974 162.824 139.581C162.824 136.779 164.394 134.838 167.038 134.838C169.466 134.838 170.848 137.103 170.848 139.368H164.291L164.297 139.374Z" fill="#FFFFFF"/>
<path d="M176.507 134.848V135.385H173.593V142.196C173.593 143.387 174.176 143.791 174.851 143.791C175.417 143.791 176.275 143.371 176.275 141.85V141.026H176.82V141.723C176.82 143.254 176.097 144.333 174.5 144.333C173.081 144.333 172.271 143.557 172.271 142.105V135.385H170.825V134.848C172.46 134.848 172.924 133.279 173.038 131.971H173.593V134.848H176.507Z" fill="#FFFFFF"/>
<path d="M184.813 138.954H189.205L187.02 133.046L184.813 138.954ZM180.776 144.101V143.558C182.05 143.558 182.476 143.388 182.73 142.718L187.209 130.904H187.683L192.141 142.83C192.373 143.447 192.821 143.558 193.83 143.558V144.101H188.865V143.558C190.306 143.558 190.592 143.404 190.592 143.021C190.592 142.484 189.604 140.24 189.432 139.608H184.581C184.489 139.932 183.469 142.468 183.469 143.043C183.469 143.489 183.906 143.558 185.228 143.558V144.101H180.782H180.776Z" fill="#FFFFFF"/>
<path d="M201.427 142.784C201.427 143.363 201.73 143.555 202.884 143.555V144.097L200.1 144.209V142.789H200.062C199.377 143.736 198.675 144.331 197.137 144.331C195.465 144.331 194.213 143.736 194.213 141.795V136.382C194.213 135.808 193.9 135.611 192.68 135.611V135.079L195.546 134.968V141.933C195.546 143.156 196.22 143.794 197.38 143.794C199.01 143.794 200.1 142.486 200.1 140.333V136.382C200.1 135.808 199.792 135.611 198.557 135.611V135.079L201.422 134.968V142.789L201.427 142.784Z" fill="#FFFFFF"/>
<path d="M208.123 134.848V135.385H205.209V142.196C205.209 143.387 205.792 143.791 206.472 143.791C207.033 143.791 207.891 143.371 207.891 141.85V141.026H208.436V141.723C208.436 143.254 207.713 144.333 206.121 144.333C204.702 144.333 203.882 143.557 203.882 142.105V135.385H202.446V134.848C204.081 134.848 204.545 133.279 204.664 131.971H205.215V134.848H208.128H208.123Z" fill="#FFFFFF"/>
<path d="M216.295 144.101V137.88C216.295 136.885 216.295 135.386 214.498 135.386C212.976 135.386 211.735 136.853 211.735 139.379V142.793C211.735 143.372 212.048 143.564 213.289 143.564V144.106H208.751V143.564C210.1 143.564 210.413 143.378 210.413 142.793V132.281C210.413 131.701 210.1 131.515 208.87 131.515V130.973L211.735 130.904V136.651H211.773C212.458 135.444 213.289 134.849 214.811 134.849C216.521 134.849 217.617 135.673 217.617 137.688V142.793C217.617 143.372 217.849 143.564 219.128 143.564V144.106H216.295V144.101Z" fill="#FFFFFF"/>
<path d="M225.997 139.586C225.997 136.879 225.139 135.38 223.251 135.38C221.362 135.38 220.504 136.879 220.504 139.586C220.504 142.292 221.367 143.786 223.251 143.786C225.134 143.786 225.997 142.292 225.997 139.586ZM219.031 139.586C219.031 137.182 220.606 134.843 223.251 134.843C225.895 134.843 227.476 137.182 227.476 139.586C227.476 141.989 225.911 144.328 223.251 144.328C220.59 144.328 219.031 141.978 219.031 139.586Z" fill="#FFFFFF"/>
<path d="M228.835 136.379C228.835 135.805 228.522 135.608 227.292 135.608V135.077L230.157 134.965V137.267H230.195C230.643 136.156 231.339 134.843 232.742 134.843C233.524 134.843 234.242 135.311 234.242 136.167C234.242 136.751 233.87 137.108 233.346 137.108C232.823 137.108 232.45 136.826 232.45 136.246C232.45 135.906 232.607 135.63 232.914 135.475C232.855 135.401 232.742 135.38 232.623 135.38C232.116 135.38 230.923 135.954 230.416 138.166C230.152 139.373 230.152 141.154 230.152 142.404C230.152 143.371 230.459 143.557 231.9 143.557V144.1H227.265V143.557C228.511 143.557 228.824 143.371 228.824 142.786V136.379H228.835Z" fill="#FFFFFF"/>
<path d="M237.825 131.942C237.825 132.463 237.41 132.851 236.886 132.851C236.363 132.851 235.947 132.463 235.947 131.942C235.947 131.421 236.352 131.006 236.886 131.006C237.383 131.006 237.825 131.41 237.825 131.942ZM239.293 144.097H234.695V143.555C236.066 143.555 236.374 143.369 236.374 142.784V136.377C236.374 135.802 236.066 135.606 234.841 135.606V135.074L237.706 134.962V142.784C237.706 143.363 238.009 143.555 239.293 143.555V144.097Z" fill="#FFFFFF"/>
<path d="M244.609 134.941V135.478H241.679V142.29C241.679 143.481 242.267 143.885 242.942 143.885C243.508 143.885 244.372 143.465 244.372 141.944V141.12H244.917V141.816C244.917 143.348 244.199 144.427 242.596 144.427C241.177 144.427 240.362 143.651 240.362 142.199V135.478H238.916V134.941C240.546 134.941 241.015 133.373 241.134 132.065H241.673V134.941H244.604H244.609Z" fill="#FFFFFF"/>
<path d="M244.435 134.941H248.816V135.473C247.397 135.473 247.241 135.643 247.241 135.93C247.241 136.408 248.363 138.966 249.653 142.092H249.696C250.98 138.849 251.995 136.738 251.995 136.084C251.995 135.648 251.692 135.473 250.554 135.473V134.941H254.25V135.473C253.252 135.473 252.944 135.664 252.577 136.563L249.653 143.757C248.584 146.415 247.937 147.213 246.48 147.213C245.487 147.213 244.629 146.548 244.629 145.676C244.629 145.075 245.071 144.65 245.616 144.65C246.091 144.65 246.48 144.974 246.48 145.394C246.48 145.969 246.151 146.298 245.562 146.336C245.692 146.548 246.07 146.681 246.571 146.681C247.688 146.681 248.482 145.527 248.967 143.735L245.935 136.206C245.697 135.611 245.212 135.483 244.44 135.483V134.951L244.435 134.941Z" fill="#FFFFFF"/>
<path d="M306.293 118.032L321.543 103L276.582 103.011L306.293 118.032Z" fill="#FFFFFF" fill-opacity="0.62"/>
<path d="M291.817 132.27L276.562 147.302H321.539L291.817 132.27Z" fill="#FFFFFF" fill-opacity="0.82"/>
</svg>
